<mxfile host="app.diagrams.net" modified="2022-04-13T08:32:56.694Z" agent="5.0 (Windows NT 10.0; Win64; x64) AppleWebKit/537.36 (KHTML, like Gecko) Chrome/100.0.4896.75 Safari/537.36" etag="pjBgcAL_6pbneoQRbW-q" version="17.4.3" type="github">
  <diagram id="4kWxK62Aen3EkiiW6IVV" name="Page-1">
    <mxGraphModel dx="2249" dy="754" grid="1" gridSize="10" guides="1" tooltips="1" connect="1" arrows="1" fold="1" page="1" pageScale="1" pageWidth="827" pageHeight="1169" math="0" shadow="0">
      <root>
        <mxCell id="0" />
        <mxCell id="1" parent="0" />
        <mxCell id="ybyG4MZSoKnREtZZ5eZ--14" value="" style="rounded=0;whiteSpace=wrap;html=1;labelBackgroundColor=#FFFFFF;fillColor=#fff2cc;strokeColor=#d6b656;" vertex="1" parent="1">
          <mxGeometry x="640" y="80" width="200" height="400" as="geometry" />
        </mxCell>
        <mxCell id="ybyG4MZSoKnREtZZ5eZ--8" value="" style="rounded=0;whiteSpace=wrap;html=1;fillColor=#dae8fc;strokeColor=#6c8ebf;" vertex="1" parent="1">
          <mxGeometry x="-40" y="40" width="200" height="480" as="geometry" />
        </mxCell>
        <mxCell id="ybyG4MZSoKnREtZZ5eZ--1" value="function" style="rounded=0;whiteSpace=wrap;html=1;fillColor=#e1d5e7;strokeColor=#9673a6;" vertex="1" parent="1">
          <mxGeometry y="80" width="120" height="40" as="geometry" />
        </mxCell>
        <mxCell id="ybyG4MZSoKnREtZZ5eZ--10" value="" style="edgeStyle=orthogonalEdgeStyle;rounded=0;orthogonalLoop=1;jettySize=auto;html=1;fontColor=#EA6B66;" edge="1" parent="1" source="ybyG4MZSoKnREtZZ5eZ--3" target="ybyG4MZSoKnREtZZ5eZ--7">
          <mxGeometry relative="1" as="geometry" />
        </mxCell>
        <mxCell id="ybyG4MZSoKnREtZZ5eZ--3" value="std::packaged_task" style="ellipse;whiteSpace=wrap;html=1;fillColor=#fad9d5;strokeColor=#ae4132;" vertex="1" parent="1">
          <mxGeometry x="240" y="240" width="120" height="80" as="geometry" />
        </mxCell>
        <mxCell id="ybyG4MZSoKnREtZZ5eZ--4" value="lambda&lt;br&gt;expression" style="rounded=0;whiteSpace=wrap;html=1;fillColor=#e1d5e7;strokeColor=#9673a6;" vertex="1" parent="1">
          <mxGeometry y="200" width="120" height="40" as="geometry" />
        </mxCell>
        <mxCell id="ybyG4MZSoKnREtZZ5eZ--5" value="bind&lt;br&gt;expression" style="rounded=0;whiteSpace=wrap;html=1;fillColor=#e1d5e7;strokeColor=#9673a6;" vertex="1" parent="1">
          <mxGeometry y="320" width="120" height="40" as="geometry" />
        </mxCell>
        <mxCell id="ybyG4MZSoKnREtZZ5eZ--6" value="other function&lt;br&gt;object" style="rounded=0;whiteSpace=wrap;html=1;fillColor=#e1d5e7;strokeColor=#9673a6;" vertex="1" parent="1">
          <mxGeometry y="440" width="120" height="40" as="geometry" />
        </mxCell>
        <mxCell id="ybyG4MZSoKnREtZZ5eZ--15" value="" style="edgeStyle=orthogonalEdgeStyle;rounded=0;orthogonalLoop=1;jettySize=auto;html=1;fontColor=#2D2D2D;" edge="1" parent="1" source="ybyG4MZSoKnREtZZ5eZ--7" target="ybyG4MZSoKnREtZZ5eZ--14">
          <mxGeometry relative="1" as="geometry" />
        </mxCell>
        <mxCell id="ybyG4MZSoKnREtZZ5eZ--7" value="&lt;b&gt;&lt;font color=&quot;#ea6b66&quot;&gt;&lt;i&gt;void类型&lt;/i&gt;&lt;/font&gt;&lt;/b&gt;函数对象" style="rounded=0;whiteSpace=wrap;html=1;fillColor=#bac8d3;strokeColor=#23445d;dashed=1;" vertex="1" parent="1">
          <mxGeometry x="440" y="260" width="120" height="40" as="geometry" />
        </mxCell>
        <mxCell id="ybyG4MZSoKnREtZZ5eZ--9" value="" style="endArrow=classic;html=1;rounded=0;fontColor=#EA6B66;exitX=1;exitY=0.5;exitDx=0;exitDy=0;entryX=0;entryY=0.5;entryDx=0;entryDy=0;" edge="1" parent="1" source="ybyG4MZSoKnREtZZ5eZ--8" target="ybyG4MZSoKnREtZZ5eZ--3">
          <mxGeometry width="50" height="50" relative="1" as="geometry">
            <mxPoint x="260" y="230" as="sourcePoint" />
            <mxPoint x="310" y="180" as="targetPoint" />
          </mxGeometry>
        </mxCell>
        <mxCell id="ybyG4MZSoKnREtZZ5eZ--11" value="&lt;div style=&quot;text-align: left&quot;&gt;&lt;font color=&quot;#2d2d2d&quot;&gt;&lt;span style=&quot;font-size: 15px ; background-color: rgb(255 , 255 , 255)&quot;&gt;主动显示invoke&lt;/span&gt;&lt;/font&gt;&lt;/div&gt;" style="rounded=0;whiteSpace=wrap;html=1;fillColor=#dae8fc;strokeColor=#6c8ebf;" vertex="1" parent="1">
          <mxGeometry x="680" y="120" width="120" height="60" as="geometry" />
        </mxCell>
        <mxCell id="ybyG4MZSoKnREtZZ5eZ--12" value="&lt;div style=&quot;text-align: left&quot;&gt;&lt;font color=&quot;#2d2d2d&quot;&gt;&lt;span style=&quot;font-size: 15px ; background-color: rgb(255 , 255 , 255)&quot;&gt;std::thread&lt;/span&gt;&lt;/font&gt;&lt;/div&gt;" style="rounded=0;whiteSpace=wrap;html=1;fillColor=#dae8fc;strokeColor=#6c8ebf;" vertex="1" parent="1">
          <mxGeometry x="680" y="250" width="120" height="60" as="geometry" />
        </mxCell>
        <mxCell id="ybyG4MZSoKnREtZZ5eZ--13" value="&lt;div style=&quot;text-align: left&quot;&gt;&lt;font color=&quot;#2d2d2d&quot;&gt;&lt;span style=&quot;font-size: 15px ; background-color: rgb(255 , 255 , 255)&quot;&gt;std::async&lt;/span&gt;&lt;/font&gt;&lt;/div&gt;" style="rounded=0;whiteSpace=wrap;html=1;fillColor=#dae8fc;strokeColor=#6c8ebf;" vertex="1" parent="1">
          <mxGeometry x="680" y="380" width="120" height="60" as="geometry" />
        </mxCell>
      </root>
    </mxGraphModel>
  </diagram>
</mxfile>
